<?xml version="1.0" encoding="UTF-8"?>
<svg xmlns="http://www.w3.org/2000/svg" width="116" height="32" viewBox="0 0 116 32" fill="none">
  <g clip-path="url(#clip0_1118_2543)">
    <path fill-rule="evenodd" clip-rule="evenodd" d="M19.4699 0.429001L19.7941 7.79207L15.2377 0C13.9058 0.0612859 12.609 0.288919 11.3823 0.656635L15.1062 7.03912L7.22891 2.59152C6.13362 3.30944 5.13472 4.14993 4.24973 5.10424L10.69 8.73762L1.63855 8.86895C1.06024 10.0246 0.622124 11.2503 0.34173 12.5461L7.73713 12.441L0 17.0988C0.0876232 18.4295 0.341732 19.7078 0.727274 20.9248L7.03614 17.125L2.72508 25.0222C3.46112 26.099 4.31982 27.0884 5.29244 27.9551L8.80613 21.5201L9.06024 30.4766C10.2256 31.0369 11.4611 31.4572 12.7579 31.7198L12.5476 24.4181L17.2705 32C18.6024 31.8949 19.8817 31.6323 21.0997 31.2208L17.2442 25.0397L25.1391 29.1984C26.2169 28.4542 27.1982 27.5787 28.057 26.5981L21.6166 23.2011L30.5367 22.8159C31.0887 21.6514 31.5005 20.4082 31.7547 19.1037L24.4732 19.4189L32 14.6036C31.8861 13.2728 31.6057 11.9945 31.1851 10.7776L25.034 14.7261L29.2749 6.9078C28.5126 5.83967 27.6276 4.86785 26.6375 4.0186L23.448 9.77073L23.1238 1.80356C21.9759 1.20821 20.7492 0.735431 19.4611 0.429001H19.4699ZM16.0175 8.97401C19.9168 8.97401 23.0712 12.1259 23.0712 16.0219C23.0712 19.9179 19.9168 23.0698 16.0175 23.0698C12.1183 23.0698 8.96385 19.9179 8.96385 16.0219C8.96385 12.1259 12.1183 8.97401 16.0175 8.97401Z" fill="#F44848"></path>
    <path d="M42.1029 5.09957C42.1029 3.83889 42.3275 2.94048 42.7768 2.40433C43.226 1.86818 44.0229 1.6001 45.1677 1.6001H47.3413L47.6456 1.9044V23.6402C47.6456 24.2488 47.7832 24.727 48.0586 25.0748C48.3484 25.4226 48.8338 25.5965 49.5149 25.5965H52.2101C52.5144 26.4804 52.6666 27.4005 52.6666 28.3569C52.6666 28.5598 52.6593 28.7771 52.6448 29.009C52.6303 29.2264 52.5941 29.4292 52.5361 29.6176C51.7681 29.719 50.9132 29.806 49.9713 29.8784C49.0439 29.9509 48.1455 29.9871 47.2761 29.9871C45.5517 29.9871 44.2548 29.5596 43.3854 28.7047C42.5304 27.8353 42.1029 26.5021 42.1029 24.7053V5.09957ZM52.9057 8.16433C53.0795 8.83089 53.1665 9.5047 53.1665 10.1857C53.1665 10.9393 53.0795 11.6348 52.9057 12.2724L45.2764 12.142L38.7774 12.2724C38.6325 11.6058 38.56 10.9103 38.56 10.1857C38.56 9.53369 38.6325 8.85987 38.7774 8.16433L45.4068 8.27301L52.9057 8.16433Z" fill="#212429"></path>
    <path d="M58.9251 20.8145V16.8368H68.2498V16.2934C68.2498 15.4675 68.1266 14.7067 67.8803 14.0112C67.6484 13.3156 67.2717 12.7577 66.75 12.3375C66.2429 11.9173 65.5546 11.7072 64.6851 11.7072C63.4244 11.7072 62.5043 12.2361 61.9247 13.2939C61.3595 14.3372 61.077 15.8515 61.077 17.8367V19.5538C61.077 20.7275 61.1857 21.7998 61.403 22.7707C61.6349 23.7416 62.0696 24.5168 62.7072 25.0964C63.3592 25.6616 64.3011 25.9441 65.5328 25.9441C66.5761 25.9441 67.5832 25.8065 68.5541 25.5312C69.5395 25.2413 70.4813 24.8863 71.3798 24.4661C71.8145 24.9008 72.1695 25.4442 72.4448 26.0963C72.7346 26.7484 72.923 27.3642 73.01 27.9438C71.9377 28.7118 70.6552 29.3132 69.1627 29.7479C67.6847 30.1826 66.1777 30.4 64.6417 30.4C62.8158 30.4 61.3016 30.0884 60.0989 29.4653C58.8961 28.8423 57.9398 28.0018 57.2297 26.944C56.5342 25.8717 56.0415 24.6617 55.7517 23.3141C55.4619 21.952 55.317 20.5464 55.317 19.0973C55.317 16.9238 55.6503 14.9675 56.3168 13.2287C56.9834 11.4898 58.0122 10.1204 59.4033 9.12062C60.7944 8.10629 62.5695 7.59912 64.7286 7.59912C66.6269 7.59912 68.2281 8.0121 69.5322 8.83806C70.8509 9.64953 71.8507 10.7508 72.5318 12.1419C73.2273 13.533 73.5751 15.098 73.5751 16.8368C73.5751 17.6773 73.5389 18.3873 73.4664 18.9669C73.394 19.5321 73.278 20.1479 73.1186 20.8145H58.9251Z" fill="#212429"></path>
    <path d="M83.5539 16.5323C84.0755 15.8513 84.6552 15.1412 85.2927 14.4022C85.9448 13.6487 86.5317 12.9749 87.0533 12.3808L86.9229 12.1851C86.4447 12.2431 85.8724 12.2938 85.2058 12.3373C84.5537 12.3808 83.8872 12.417 83.2061 12.446C82.5251 12.475 81.902 12.4894 81.3368 12.4894H77.4026C77.3302 12.1996 77.2795 11.8953 77.2505 11.5765C77.2215 11.2578 77.207 10.9752 77.207 10.7288C77.207 10.3231 77.236 9.90291 77.294 9.4682C77.3519 9.03348 77.4244 8.61325 77.5113 8.20752H92.3786C92.6395 8.93205 92.8351 9.5479 92.9655 10.055C93.0959 10.5622 93.1611 11.0114 93.1611 11.4027C93.1611 11.678 93.1104 11.975 93.009 12.2938C92.922 12.6126 92.7699 12.9097 92.5525 13.185L86.3795 21.4229C85.8869 22.075 85.3435 22.7705 84.7493 23.5095C84.1697 24.2341 83.6118 24.8934 83.0757 25.4875L83.2061 25.6831C83.8582 25.6107 84.503 25.5599 85.1406 25.531C85.7927 25.4875 86.3795 25.4658 86.9012 25.4658H88.6835C89.5095 25.4658 90.2992 25.4223 91.0527 25.3353C91.8063 25.2339 92.4728 25.0528 93.0524 24.7919C93.2553 25.2701 93.4002 25.6976 93.4872 26.0744C93.5741 26.4366 93.6176 26.8134 93.6176 27.2046C93.6176 27.9871 93.3785 28.6175 92.9003 29.0956C92.4366 29.5593 91.5961 29.7912 90.3789 29.7912H77.3374C77.0911 29.0667 76.91 28.4943 76.794 28.0741C76.6926 27.6393 76.6419 27.2481 76.6419 26.9003C76.6419 26.5815 76.6998 26.241 76.8158 25.8787C76.9462 25.5165 77.1635 25.1325 77.4678 24.7267L83.5539 16.5323Z" fill="#212429"></path>
    <path d="M115.398 18.9887C115.398 21.2637 115.028 23.2634 114.289 24.9878C113.55 26.6976 112.456 28.0308 111.007 28.9872C109.573 29.929 107.79 30.4 105.66 30.4C103.516 30.4 101.719 29.9218 100.27 28.9654C98.8352 27.9946 97.7556 26.6542 97.0311 24.9443C96.3066 23.2344 95.9443 21.2492 95.9443 18.9887C95.9443 16.7281 96.3066 14.7429 97.0311 13.033C97.7701 11.3232 98.8569 9.99006 100.291 9.03368C101.741 8.0773 103.53 7.59912 105.66 7.59912C107.805 7.59912 109.594 8.08455 111.029 9.05542C112.478 10.0118 113.565 11.3449 114.289 13.0548C115.028 14.7502 115.398 16.7281 115.398 18.9887ZM101.791 18.9887C101.791 20.2638 101.893 21.4448 102.096 22.5316C102.298 23.6039 102.682 24.4733 103.248 25.1399C103.813 25.792 104.617 26.118 105.66 26.118C106.733 26.118 107.544 25.792 108.095 25.1399C108.66 24.4733 109.044 23.6039 109.247 22.5316C109.45 21.4448 109.551 20.2638 109.551 18.9887C109.551 17.728 109.45 16.5543 109.247 15.4675C109.044 14.3807 108.66 13.5112 108.095 12.8592C107.544 12.1926 106.733 11.8593 105.66 11.8593C104.617 11.8593 103.813 12.1926 103.248 12.8592C102.682 13.5112 102.298 14.3807 102.096 15.4675C101.893 16.5543 101.791 17.728 101.791 18.9887Z" fill="#212429"></path>
  </g>
  <defs>
    <clipPath id="clip0_1118_2543">
      <rect width="116" height="32" fill="white"></rect>
    </clipPath>
  </defs>
</svg>
